<svg width="32" height="32" viewBox="0 0 32 32" fill="none" xmlns="http://www.w3.org/2000/svg">
<path d="M25.999 3.99976H22.999V2.99976C22.999 2.73454 22.8937 2.48019 22.7061 2.29265C22.5186 2.10511 22.2642 1.99976 21.999 1.99976C21.7338 1.99976 21.4795 2.10511 21.2919 2.29265C21.1044 2.48019 20.999 2.73454 20.999 2.99976V3.99976H10.999V2.99976C10.999 2.73454 10.8937 2.48019 10.7061 2.29265C10.5186 2.10511 10.2642 1.99976 9.99902 1.99976C9.73381 1.99976 9.47945 2.10511 9.29192 2.29265C9.10438 2.48019 8.99902 2.73454 8.99902 2.99976V3.99976H5.99902C5.46875 4.00028 4.96035 4.21116 4.58539 4.58612C4.21043 4.96108 3.99955 5.46948 3.99902 5.99976V25.9998C3.99955 26.53 4.21043 27.0384 4.58539 27.4134C4.96035 27.7884 5.46875 27.9992 5.99902 27.9998H25.999C26.5293 27.9992 27.0377 27.7884 27.4127 27.4134C27.7876 27.0384 27.9985 26.53 27.999 25.9998V5.99976C27.9985 5.46948 27.7876 4.96108 27.4127 4.58612C27.0377 4.21116 26.5293 4.00028 25.999 3.99976ZM25.999 9.99976H5.99902V5.99976H8.99902V6.99976C8.99902 7.26497 9.10438 7.51933 9.29192 7.70686C9.47945 7.8944 9.73381 7.99976 9.99902 7.99976C10.2642 7.99976 10.5186 7.8944 10.7061 7.70686C10.8937 7.51933 10.999 7.26497 10.999 6.99976V5.99976H20.999V6.99976C20.999 7.26497 21.1044 7.51933 21.2919 7.70686C21.4795 7.8944 21.7338 7.99976 21.999 7.99976C22.2642 7.99976 22.5186 7.8944 22.7061 7.70686C22.8937 7.51933 22.999 7.26497 22.999 6.99976V5.99976H25.999V9.99976Z" fill="#fff"/>
</svg>
