<svg width="99" height="40" viewBox="0 0 99 40" fill="none" xmlns="http://www.w3.org/2000/svg">
<path d="M36.1 0H3.9C2.86647 0.00263994 1.87602 0.414379 1.1452 1.1452C0.414379 1.87602 0.00263994 2.86647 0 3.9L0 36.1C0.00263994 37.1335 0.414379 38.124 1.1452 38.8548C1.87602 39.5856 2.86647 39.9974 3.9 40H36.1C37.1335 39.9974 38.124 39.5856 38.8548 38.8548C39.5856 38.124 39.9974 37.1335 40 36.1V3.9C39.9974 2.86647 39.5856 1.87602 38.8548 1.1452C38.124 0.414379 37.1335 0.00263994 36.1 0V0ZM8 29.15L16.41 16.45H10.19L13.63 10.85H24.77L20.24 17.85L12.92 29.15H8ZM29.86 23.55L26.42 29.15H15.23L19.76 22.15L27.08 10.84H32.08L23.67 23.54L29.86 23.55Z" fill="#3554D1"/>
<path d="M56.624 11.95C58.0193 11.95 59.2307 12.18 60.258 12.64C61.3007 13.1 62.098 13.7593 62.65 14.618C63.202 15.4766 63.478 16.4963 63.478 17.677C63.478 18.8423 63.202 19.862 62.65 20.736C62.098 21.5946 61.3007 22.254 60.258 22.714C59.2307 23.174 58.0193 23.404 56.624 23.404H52.99V28.05H50V11.95H56.624ZM56.486 20.874C57.7893 20.874 58.7783 20.598 59.453 20.046C60.1277 19.494 60.465 18.7043 60.465 17.677C60.465 16.6496 60.1277 15.86 59.453 15.308C58.7783 14.756 57.7893 14.48 56.486 14.48H52.99V20.874H56.486Z" fill="#3554D1"/>
<path d="M77.5973 24.324H69.5473L67.9603 28.05H64.8783L72.1233 11.95H75.0673L82.3353 28.05H79.2073L77.5973 24.324ZM76.6083 21.978L73.5723 14.94L70.5593 21.978H76.6083Z" fill="#3554D1"/>
<path d="M91.863 22.369V28.05H88.873V22.415L82.548 11.95H85.745L90.46 19.793L95.221 11.95H98.165L91.863 22.369Z" fill="#3554D1"/>
</svg>
